<mxfile host="app.diagrams.net" modified="2023-06-17T14:48:47.528Z" agent="Mozilla/5.0 (Windows NT 10.0; Win64; x64; rv:109.0) Gecko/20100101 Firefox/115.0" version="21.3.7" etag="Jud_Cn8sc42sXa5XlzY_" type="github">
  <diagram name="PÃ¡gina-1" id="hRdlBJyzf7pZBPRRsh6Z">
    <mxGraphModel>
      <root>
        <mxCell id="0" />
        <mxCell id="1" parent="0" />
      </root>
    </mxGraphModel>
  </diagram>
</mxfile>
